<?xml version="1.0" encoding="UTF-8" standalone="no"?>
<!DOCTYPE svg PUBLIC "-//W3C//DTD SVG 1.1//EN" "http://www.w3.org/Graphics/SVG/1.1/DTD/svg11.dtd">
<svg xmlns="http://www.w3.org/2000/svg" version="1.1" viewBox="0.00 0.00 1024.00 1024.00">
<g stroke-width="2.00" fill="none" stroke-linecap="butt">
<path stroke="#8b9497" vector-effect="non-scaling-stroke" d="
  M 537.53 759.29
  C 586.13 792.42 648.74 773.11 674.66 721.98
  C 677.05 717.27 678.82 711.19 680.89 705.80
  Q 681.09 705.30 681.63 705.23
  Q 702.82 702.53 722.19 694.03
  C 767.82 674.02 793.45 617.81 776.87 570.41
  Q 771.99 556.46 763.63 544.37
  A 2.83 2.82 -51.9 0 1 763.32 541.76
  C 767.98 529.65 768.73 515.72 766.99 502.98
  C 765.45 491.74 761.08 481.55 755.03 471.70
  Q 741.30 449.34 716.82 439.24
  A 3.37 3.37 0.0 0 1 714.83 436.93
  Q 705.43 398.41 672.23 377.18
  Q 671.75 376.87 671.75 376.31
  L 671.59 346.20
  Q 671.58 344.84 672.88 344.43
  Q 712.94 331.97 753.02 320.68
  C 758.84 319.05 762.82 317.22 764.60 311.61
  C 766.58 305.35 761.14 299.28 755.54 297.55
  Q 641.64 262.44 528.24 225.76
  C 517.11 222.16 509.32 219.19 497.72 222.96
  Q 379.44 261.35 260.55 297.89
  Q 252.33 300.41 247.86 303.13
  Q 227.09 315.76 226.02 342.03
  Q 225.56 353.41 225.96 382.57
  A 1.01 1.01 0.0 0 1 225.55 383.40
  C 219.01 388.19 214.50 390.84 214.42 400.00
  Q 214.21 423.87 214.20 447.75
  C 214.20 453.24 218.89 463.49 225.00 463.98
  Q 231.21 464.48 241.90 463.72
  C 249.84 463.16 254.82 456.58 254.94 449.00
  Q 255.21 432.12 255.05 403.71
  C 255.00 394.88 252.17 388.72 244.53 384.40
  Q 244.07 384.15 244.08 383.63
  Q 244.31 366.25 244.21 348.85
  Q 244.15 336.76 245.59 332.26
  Q 248.50 323.16 257.15 317.51
  Q 257.60 317.22 258.06 317.47
  C 260.03 318.54 261.81 319.68 263.94 320.28
  C 292.31 328.23 320.66 336.25 348.78 345.06
  A 0.76 0.75 -82.1 0 1 349.31 345.77
  L 349.37 376.20
  A 0.85 0.84 73.1 0 1 349.00 376.90
  C 326.70 392.48 311.76 410.28 306.25 437.53
  A 1.92 1.88 -5.8 0 1 305.11 438.90
  C 264.38 455.81 244.26 499.71 258.55 541.64
  A 2.77 2.75 -35.8 0 1 258.12 544.22
  Q 239.71 568.02 239.44 597.77
  C 239.23 622.09 246.19 643.72 261.22 663.31
  Q 284.17 693.22 320.02 701.68
  Q 328.86 703.77 337.86 705.16
  C 339.27 705.38 340.10 706.27 340.52 707.51
  Q 355.74 753.12 399.00 769.66
  C 427.13 780.42 457.15 776.34 482.51 760.05
  Q 483.16 759.63 483.16 760.40
  Q 482.92 782.09 483.03 804.25
  C 483.06 810.43 486.12 818.32 493.25 818.49
  Q 504.99 818.77 525.62 818.30
  Q 528.78 818.23 530.75 816.99
  C 536.31 813.51 536.96 808.87 536.94 801.98
  Q 536.88 780.77 536.99 759.57
  Q 537.00 758.93 537.53 759.29"
/>
<path stroke="#8b9497" vector-effect="non-scaling-stroke" d="
  M 511.5326 301.4692
  A 17.81 17.53 83.9 0 0 527.0707 281.8972
  A 17.81 17.53 83.9 0 0 507.7474 266.0508
  A 17.81 17.53 83.9 0 0 492.2093 285.6228
  A 17.81 17.53 83.9 0 0 511.5326 301.4692"
/>
<path stroke="#8b9497" vector-effect="non-scaling-stroke" d="
  M 370.13 420.35
  C 365.90 415.51 367.02 409.59 367.08 403.58
  Q 367.09 403.05 366.59 403.25
  Q 359.94 405.96 354.42 411.16
  C 339.84 424.90 331.94 445.82 340.97 464.95
  A 0.65 0.65 0.0 0 0 341.78 465.27
  C 354.60 460.32 364.32 457.17 377.53 459.32
  C 387.46 460.94 395.74 472.93 387.14 481.43
  C 382.14 486.39 376.48 485.15 370.32 484.74
  C 362.53 484.22 353.44 487.38 346.23 490.15
  C 329.31 496.65 319.21 485.44 313.30 471.16
  Q 312.70 469.71 311.28 470.38
  C 291.22 479.98 280.75 506.74 287.75 527.26
  A 0.82 0.82 0.0 0 0 288.81 527.76
  Q 299.36 523.87 310.52 522.79
  C 316.78 522.19 323.10 523.57 329.36 524.74
  A 0.90 0.88 -64.8 0 0 330.22 524.42
  C 331.60 522.71 332.97 520.54 334.28 519.25
  C 341.73 511.91 354.51 514.87 357.30 525.03
  C 358.21 528.35 357.25 533.04 355.50 535.73
  Q 346.74 549.19 350.03 564.51
  C 351.31 570.46 354.07 573.41 358.07 577.92
  C 365.37 586.13 357.44 598.50 347.48 598.13
  Q 339.87 597.85 334.28 590.93
  Q 319.86 573.08 322.74 550.03
  Q 322.80 549.54 322.33 549.43
  Q 316.80 548.14 311.30 548.86
  C 281.20 552.81 265.88 582.78 271.75 611.01
  Q 271.87 611.57 272.34 611.27
  Q 277.40 608.07 282.63 605.20
  C 287.63 602.47 292.11 602.51 297.74 602.58
  Q 302.73 602.65 305.40 603.44
  C 320.95 608.04 316.87 630.43 299.66 628.06
  Q 296.79 627.67 295.02 628.15
  Q 287.62 630.19 282.32 636.16
  Q 281.93 636.59 282.20 637.10
  C 292.83 657.18 315.46 673.39 339.16 673.18
  Q 339.73 673.18 339.78 672.60
  Q 341.06 657.61 348.84 645.04
  Q 351.99 639.95 354.82 638.02
  Q 359.13 635.09 364.51 636.29
  C 372.87 638.17 377.39 646.32 374.25 654.49
  C 372.50 659.05 370.01 663.66 368.98 667.87
  Q 363.12 691.84 376.35 713.14
  Q 385.63 728.09 398.89 736.36
  Q 421.80 750.65 448.96 742.82
  C 469.71 736.83 484.57 717.31 492.35 698.14
  C 492.65 697.39 492.57 696.16 492.22 695.42
  C 486.11 682.35 473.12 673.22 458.26 674.97
  Q 442.59 676.81 437.12 690.62
  C 435.82 693.90 435.82 698.35 434.98 701.29
  Q 433.35 707.03 426.49 709.09
  C 420.84 710.79 415.28 708.93 411.75 704.25
  C 405.21 695.58 413.03 678.81 418.56 671.09
  C 435.83 647.00 469.09 642.01 493.28 658.94
  A 0.43 0.43 0.0 0 0 493.95 658.59
  Q 493.97 648.88 494.03 639.00
  Q 494.05 635.11 493.00 632.78
  Q 481.93 608.33 454.51 607.43
  Q 436.85 606.86 425.58 618.96
  C 420.80 624.09 418.52 630.99 410.16 631.13
  C 403.29 631.24 397.76 626.18 397.37 619.23
  C 397.10 614.56 399.70 608.97 402.62 605.40
  Q 422.35 581.25 453.99 581.20
  Q 475.99 581.16 492.83 594.98
  A 0.59 0.58 -63.6 0 0 493.77 594.66
  Q 493.91 594.08 493.91 593.25
  Q 494.03 538.88 494.01 484.50
  C 494.00 460.65 479.25 440.83 455.12 437.27
  C 450.08 436.53 444.59 438.01 440.09 436.52
  C 431.22 433.60 429.76 420.87 436.72 415.50
  C 440.86 412.29 446.22 411.65 451.51 411.63
  C 468.05 411.57 480.48 417.35 493.31 426.98
  A 0.40 0.40 0.0 0 0 493.96 426.67
  C 494.10 419.56 494.33 411.64 492.96 405.18
  C 482.36 355.44 404.80 353.43 392.69 403.63
  C 391.41 408.95 393.66 414.16 390.23 419.00
  C 385.44 425.77 375.62 426.62 370.13 420.35"
/>
<path stroke="#8b9497" vector-effect="non-scaling-stroke" d="
  M 681.86 673.89
  C 706.54 672.00 727.36 659.37 738.56 636.92
  Q 738.77 636.51 738.49 636.14
  C 733.04 629.09 726.94 627.65 718.42 628.53
  C 707.74 629.64 700.84 618.51 706.50 609.49
  C 711.36 601.74 721.70 602.22 729.83 602.60
  C 737.11 602.94 742.87 605.89 748.27 610.32
  A 0.98 0.98 0.0 0 0 749.85 609.78
  Q 752.96 596.19 748.87 583.49
  Q 740.64 558.00 715.24 549.99
  Q 707.08 547.42 698.89 548.99
  A 0.97 0.97 0.0 0 0 698.11 550.04
  C 699.85 565.49 694.52 585.04 682.40 594.88
  C 677.39 598.96 669.59 599.24 664.26 595.46
  Q 657.66 590.77 659.86 582.07
  C 660.84 578.22 664.65 575.47 666.38 572.85
  C 673.27 562.46 673.29 551.73 667.81 540.81
  C 664.17 533.56 658.53 525.69 665.73 518.71
  C 673.63 511.04 685.45 516.01 690.18 524.45
  A 1.16 1.15 67.1 0 0 691.50 524.99
  C 705.74 520.87 718.25 522.74 731.91 527.73
  Q 732.41 527.91 732.62 527.41
  Q 737.52 515.72 734.86 503.24
  C 731.62 488.08 722.00 477.55 710.03 469.14
  A 0.72 0.72 0.0 0 0 708.95 469.47
  C 704.71 480.34 697.62 491.22 684.90 491.83
  C 678.47 492.14 670.57 488.75 664.03 486.42
  Q 656.60 483.77 648.99 484.57
  Q 641.22 485.39 640.96 485.37
  C 628.22 484.46 625.35 468.17 635.59 461.78
  C 646.32 455.08 667.28 460.24 678.04 465.31
  A 1.03 1.03 0.0 0 0 679.40 464.84
  C 691.79 440.08 676.04 414.20 653.70 401.93
  A 0.69 0.69 0.0 0 0 652.68 402.61
  C 653.60 411.37 653.93 422.90 642.78 424.52
  Q 631.73 426.13 627.91 416.59
  Q 627.09 414.54 627.11 410.81
  Q 627.20 394.88 616.10 383.13
  C 599.98 366.08 573.20 362.25 552.45 372.62
  Q 533.50 382.09 527.61 403.17
  C 525.49 410.76 525.85 419.69 526.00 427.89
  Q 526.01 428.38 526.37 428.05
  Q 542.66 413.39 564.76 411.73
  C 570.18 411.32 577.47 411.68 581.80 414.98
  C 589.76 421.04 588.80 434.01 578.24 436.70
  Q 576.44 437.16 571.70 437.09
  C 546.26 436.71 526.38 456.80 526.05 482.01
  Q 525.54 521.74 526.11 593.43
  Q 526.11 593.86 526.45 593.60
  Q 537.36 585.00 552.00 582.47
  Q 590.48 575.81 615.19 603.23
  C 620.38 608.98 625.36 616.44 621.43 624.01
  C 617.98 630.66 609.11 632.25 603.01 628.37
  C 598.40 625.44 594.52 618.31 589.86 614.63
  C 570.93 599.67 535.40 606.82 527.27 631.19
  Q 526.18 634.48 526.04 638.73
  Q 525.74 648.45 526.08 657.94
  Q 526.10 658.47 526.55 658.20
  Q 547.50 645.45 570.46 650.55
  C 590.53 655.01 604.90 669.48 610.13 689.55
  C 612.44 698.39 610.25 707.77 599.88 709.45
  C 591.44 710.81 585.80 705.12 584.65 696.85
  C 582.15 678.76 564.57 671.26 548.28 676.14
  Q 534.22 680.35 527.78 694.49
  C 526.66 696.95 527.09 698.48 528.17 700.77
  C 534.38 713.97 543.57 726.87 555.37 735.23
  C 571.52 746.69 593.52 748.61 611.49 741.38
  C 638.50 730.50 660.67 697.12 651.32 667.43
  C 649.43 661.41 644.87 655.43 644.67 649.43
  C 644.34 639.47 654.38 633.65 663.26 637.39
  C 673.68 641.77 679.77 663.35 681.27 673.41
  Q 681.34 673.92 681.86 673.89"
/>
<path stroke="#8b9497" vector-effect="non-scaling-stroke" d="
  M 409.17 496.19
  Q 399.97 519.68 412.98 541.44
  Q 415.93 546.37 421.13 548.68
  C 430.02 552.64 440.98 546.28 439.82 536.09
  C 439.43 532.69 436.64 529.11 434.79 525.99
  C 429.22 516.59 431.99 504.96 439.30 497.61
  C 442.70 494.19 447.52 493.49 450.08 489.19
  C 455.25 480.51 449.19 469.10 438.92 469.41
  C 426.14 469.79 413.42 485.34 409.17 496.19"
/>
<path stroke="#8b9497" vector-effect="non-scaling-stroke" d="
  M 577.55 495.70
  C 588.02 502.89 590.41 516.91 583.80 527.28
  Q 579.92 533.38 579.92 533.38
  C 576.91 540.56 581.70 547.00 588.43 549.37
  C 595.50 551.86 601.29 548.08 605.59 542.26
  Q 616.10 528.03 613.97 510.27
  Q 611.76 491.81 598.37 479.15
  C 590.65 471.87 583.87 466.15 574.37 471.10
  Q 567.28 474.80 567.54 482.98
  C 567.77 490.11 572.71 492.38 577.55 495.70"
/>
</g>
<path fill="#fefffa" d="
  M 0.00 0.00
  L 1024.00 0.00
  L 1024.00 1024.00
  L 0.00 1024.00
  L 0.00 0.00
  Z
  M 537.53 759.29
  C 586.13 792.42 648.74 773.11 674.66 721.98
  C 677.05 717.27 678.82 711.19 680.89 705.80
  Q 681.09 705.30 681.63 705.23
  Q 702.82 702.53 722.19 694.03
  C 767.82 674.02 793.45 617.81 776.87 570.41
  Q 771.99 556.46 763.63 544.37
  A 2.83 2.82 -51.9 0 1 763.32 541.76
  C 767.98 529.65 768.73 515.72 766.99 502.98
  C 765.45 491.74 761.08 481.55 755.03 471.70
  Q 741.30 449.34 716.82 439.24
  A 3.37 3.37 0.0 0 1 714.83 436.93
  Q 705.43 398.41 672.23 377.18
  Q 671.75 376.87 671.75 376.31
  L 671.59 346.20
  Q 671.58 344.84 672.88 344.43
  Q 712.94 331.97 753.02 320.68
  C 758.84 319.05 762.82 317.22 764.60 311.61
  C 766.58 305.35 761.14 299.28 755.54 297.55
  Q 641.64 262.44 528.24 225.76
  C 517.11 222.16 509.32 219.19 497.72 222.96
  Q 379.44 261.35 260.55 297.89
  Q 252.33 300.41 247.86 303.13
  Q 227.09 315.76 226.02 342.03
  Q 225.56 353.41 225.96 382.57
  A 1.01 1.01 0.0 0 1 225.55 383.40
  C 219.01 388.19 214.50 390.84 214.42 400.00
  Q 214.21 423.87 214.20 447.75
  C 214.20 453.24 218.89 463.49 225.00 463.98
  Q 231.21 464.48 241.90 463.72
  C 249.84 463.16 254.82 456.58 254.94 449.00
  Q 255.21 432.12 255.05 403.71
  C 255.00 394.88 252.17 388.72 244.53 384.40
  Q 244.07 384.15 244.08 383.63
  Q 244.31 366.25 244.21 348.85
  Q 244.15 336.76 245.59 332.26
  Q 248.50 323.16 257.15 317.51
  Q 257.60 317.22 258.06 317.47
  C 260.03 318.54 261.81 319.68 263.94 320.28
  C 292.31 328.23 320.66 336.25 348.78 345.06
  A 0.76 0.75 -82.1 0 1 349.31 345.77
  L 349.37 376.20
  A 0.85 0.84 73.1 0 1 349.00 376.90
  C 326.70 392.48 311.76 410.28 306.25 437.53
  A 1.92 1.88 -5.8 0 1 305.11 438.90
  C 264.38 455.81 244.26 499.71 258.55 541.64
  A 2.77 2.75 -35.8 0 1 258.12 544.22
  Q 239.71 568.02 239.44 597.77
  C 239.23 622.09 246.19 643.72 261.22 663.31
  Q 284.17 693.22 320.02 701.68
  Q 328.86 703.77 337.86 705.16
  C 339.27 705.38 340.10 706.27 340.52 707.51
  Q 355.74 753.12 399.00 769.66
  C 427.13 780.42 457.15 776.34 482.51 760.05
  Q 483.16 759.63 483.16 760.40
  Q 482.92 782.09 483.03 804.25
  C 483.06 810.43 486.12 818.32 493.25 818.49
  Q 504.99 818.77 525.62 818.30
  Q 528.78 818.23 530.75 816.99
  C 536.31 813.51 536.96 808.87 536.94 801.98
  Q 536.88 780.77 536.99 759.57
  Q 537.00 758.93 537.53 759.29
  Z"
/>
<path fill="#182933" d="
  M 536.99 759.57
  Q 536.88 780.77 536.94 801.98
  C 536.96 808.87 536.31 813.51 530.75 816.99
  Q 528.78 818.23 525.62 818.30
  Q 504.99 818.77 493.25 818.49
  C 486.12 818.32 483.06 810.43 483.03 804.25
  Q 482.92 782.09 483.16 760.40
  Q 483.16 759.63 482.51 760.05
  C 457.15 776.34 427.13 780.42 399.00 769.66
  Q 355.74 753.12 340.52 707.51
  C 340.10 706.27 339.27 705.38 337.86 705.16
  Q 328.86 703.77 320.02 701.68
  Q 284.17 693.22 261.22 663.31
  C 246.19 643.72 239.23 622.09 239.44 597.77
  Q 239.71 568.02 258.12 544.22
  A 2.77 2.75 -35.8 0 0 258.55 541.64
  C 244.26 499.71 264.38 455.81 305.11 438.90
  A 1.92 1.88 -5.8 0 0 306.25 437.53
  C 311.76 410.28 326.70 392.48 349.00 376.90
  A 0.85 0.84 73.1 0 0 349.37 376.20
  L 349.31 345.77
  A 0.76 0.75 -82.1 0 0 348.78 345.06
  C 320.66 336.25 292.31 328.23 263.94 320.28
  C 261.81 319.68 260.03 318.54 258.06 317.47
  Q 257.60 317.22 257.15 317.51
  Q 248.50 323.16 245.59 332.26
  Q 244.15 336.76 244.21 348.85
  Q 244.31 366.25 244.08 383.63
  Q 244.07 384.15 244.53 384.40
  C 252.17 388.72 255.00 394.88 255.05 403.71
  Q 255.21 432.12 254.94 449.00
  C 254.82 456.58 249.84 463.16 241.90 463.72
  Q 231.21 464.48 225.00 463.98
  C 218.89 463.49 214.20 453.24 214.20 447.75
  Q 214.21 423.87 214.42 400.00
  C 214.50 390.84 219.01 388.19 225.55 383.40
  A 1.01 1.01 0.0 0 0 225.96 382.57
  Q 225.56 353.41 226.02 342.03
  Q 227.09 315.76 247.86 303.13
  Q 252.33 300.41 260.55 297.89
  Q 379.44 261.35 497.72 222.96
  C 509.32 219.19 517.11 222.16 528.24 225.76
  Q 641.64 262.44 755.54 297.55
  C 761.14 299.28 766.58 305.35 764.60 311.61
  C 762.82 317.22 758.84 319.05 753.02 320.68
  Q 712.94 331.97 672.88 344.43
  Q 671.58 344.84 671.59 346.20
  L 671.75 376.31
  Q 671.75 376.87 672.23 377.18
  Q 705.43 398.41 714.83 436.93
  A 3.37 3.37 0.0 0 0 716.82 439.24
  Q 741.30 449.34 755.03 471.70
  C 761.08 481.55 765.45 491.74 766.99 502.98
  C 768.73 515.72 767.98 529.65 763.32 541.76
  A 2.83 2.82 -51.9 0 0 763.63 544.37
  Q 771.99 556.46 776.87 570.41
  C 793.45 617.81 767.82 674.02 722.19 694.03
  Q 702.82 702.53 681.63 705.23
  Q 681.09 705.30 680.89 705.80
  C 678.82 711.19 677.05 717.27 674.66 721.98
  C 648.74 773.11 586.13 792.42 537.53 759.29
  Q 537.00 758.93 536.99 759.57
  Z
  M 511.5326 301.4692
  A 17.81 17.53 83.9 0 0 527.0707 281.8972
  A 17.81 17.53 83.9 0 0 507.7474 266.0508
  A 17.81 17.53 83.9 0 0 492.2093 285.6228
  A 17.81 17.53 83.9 0 0 511.5326 301.4692
  Z
  M 370.13 420.35
  C 365.90 415.51 367.02 409.59 367.08 403.58
  Q 367.09 403.05 366.59 403.25
  Q 359.94 405.96 354.42 411.16
  C 339.84 424.90 331.94 445.82 340.97 464.95
  A 0.65 0.65 0.0 0 0 341.78 465.27
  C 354.60 460.32 364.32 457.17 377.53 459.32
  C 387.46 460.94 395.74 472.93 387.14 481.43
  C 382.14 486.39 376.48 485.15 370.32 484.74
  C 362.53 484.22 353.44 487.38 346.23 490.15
  C 329.31 496.65 319.21 485.44 313.30 471.16
  Q 312.70 469.71 311.28 470.38
  C 291.22 479.98 280.75 506.74 287.75 527.26
  A 0.82 0.82 0.0 0 0 288.81 527.76
  Q 299.36 523.87 310.52 522.79
  C 316.78 522.19 323.10 523.57 329.36 524.74
  A 0.90 0.88 -64.8 0 0 330.22 524.42
  C 331.60 522.71 332.97 520.54 334.28 519.25
  C 341.73 511.91 354.51 514.87 357.30 525.03
  C 358.21 528.35 357.25 533.04 355.50 535.73
  Q 346.74 549.19 350.03 564.51
  C 351.31 570.46 354.07 573.41 358.07 577.92
  C 365.37 586.13 357.44 598.50 347.48 598.13
  Q 339.87 597.85 334.28 590.93
  Q 319.86 573.08 322.74 550.03
  Q 322.80 549.54 322.33 549.43
  Q 316.80 548.14 311.30 548.86
  C 281.20 552.81 265.88 582.78 271.75 611.01
  Q 271.87 611.57 272.34 611.27
  Q 277.40 608.07 282.63 605.20
  C 287.63 602.47 292.11 602.51 297.74 602.58
  Q 302.73 602.65 305.40 603.44
  C 320.95 608.04 316.87 630.43 299.66 628.06
  Q 296.79 627.67 295.02 628.15
  Q 287.62 630.19 282.32 636.16
  Q 281.93 636.59 282.20 637.10
  C 292.83 657.18 315.46 673.39 339.16 673.18
  Q 339.73 673.18 339.78 672.60
  Q 341.06 657.61 348.84 645.04
  Q 351.99 639.95 354.82 638.02
  Q 359.13 635.09 364.51 636.29
  C 372.87 638.17 377.39 646.32 374.25 654.49
  C 372.50 659.05 370.01 663.66 368.98 667.87
  Q 363.12 691.84 376.35 713.14
  Q 385.63 728.09 398.89 736.36
  Q 421.80 750.65 448.96 742.82
  C 469.71 736.83 484.57 717.31 492.35 698.14
  C 492.65 697.39 492.57 696.16 492.22 695.42
  C 486.11 682.35 473.12 673.22 458.26 674.97
  Q 442.59 676.81 437.12 690.62
  C 435.82 693.90 435.82 698.35 434.98 701.29
  Q 433.35 707.03 426.49 709.09
  C 420.84 710.79 415.28 708.93 411.75 704.25
  C 405.21 695.58 413.03 678.81 418.56 671.09
  C 435.83 647.00 469.09 642.01 493.28 658.94
  A 0.43 0.43 0.0 0 0 493.95 658.59
  Q 493.97 648.88 494.03 639.00
  Q 494.05 635.11 493.00 632.78
  Q 481.93 608.33 454.51 607.43
  Q 436.85 606.86 425.58 618.96
  C 420.80 624.09 418.52 630.99 410.16 631.13
  C 403.29 631.24 397.76 626.18 397.37 619.23
  C 397.10 614.56 399.70 608.97 402.62 605.40
  Q 422.35 581.25 453.99 581.20
  Q 475.99 581.16 492.83 594.98
  A 0.59 0.58 -63.6 0 0 493.77 594.66
  Q 493.91 594.08 493.91 593.25
  Q 494.03 538.88 494.01 484.50
  C 494.00 460.65 479.25 440.83 455.12 437.27
  C 450.08 436.53 444.59 438.01 440.09 436.52
  C 431.22 433.60 429.76 420.87 436.72 415.50
  C 440.86 412.29 446.22 411.65 451.51 411.63
  C 468.05 411.57 480.48 417.35 493.31 426.98
  A 0.40 0.40 0.0 0 0 493.96 426.67
  C 494.10 419.56 494.33 411.64 492.96 405.18
  C 482.36 355.44 404.80 353.43 392.69 403.63
  C 391.41 408.95 393.66 414.16 390.23 419.00
  C 385.44 425.77 375.62 426.62 370.13 420.35
  Z
  M 681.86 673.89
  C 706.54 672.00 727.36 659.37 738.56 636.92
  Q 738.77 636.51 738.49 636.14
  C 733.04 629.09 726.94 627.65 718.42 628.53
  C 707.74 629.64 700.84 618.51 706.50 609.49
  C 711.36 601.74 721.70 602.22 729.83 602.60
  C 737.11 602.94 742.87 605.89 748.27 610.32
  A 0.98 0.98 0.0 0 0 749.85 609.78
  Q 752.96 596.19 748.87 583.49
  Q 740.64 558.00 715.24 549.99
  Q 707.08 547.42 698.89 548.99
  A 0.97 0.97 0.0 0 0 698.11 550.04
  C 699.85 565.49 694.52 585.04 682.40 594.88
  C 677.39 598.96 669.59 599.24 664.26 595.46
  Q 657.66 590.77 659.86 582.07
  C 660.84 578.22 664.65 575.47 666.38 572.85
  C 673.27 562.46 673.29 551.73 667.81 540.81
  C 664.17 533.56 658.53 525.69 665.73 518.71
  C 673.63 511.04 685.45 516.01 690.18 524.45
  A 1.16 1.15 67.1 0 0 691.50 524.99
  C 705.74 520.87 718.25 522.74 731.91 527.73
  Q 732.41 527.91 732.62 527.41
  Q 737.52 515.72 734.86 503.24
  C 731.62 488.08 722.00 477.55 710.03 469.14
  A 0.72 0.72 0.0 0 0 708.95 469.47
  C 704.71 480.34 697.62 491.22 684.90 491.83
  C 678.47 492.14 670.57 488.75 664.03 486.42
  Q 656.60 483.77 648.99 484.57
  Q 641.22 485.39 640.96 485.37
  C 628.22 484.46 625.35 468.17 635.59 461.78
  C 646.32 455.08 667.28 460.24 678.04 465.31
  A 1.03 1.03 0.0 0 0 679.40 464.84
  C 691.79 440.08 676.04 414.20 653.70 401.93
  A 0.69 0.69 0.0 0 0 652.68 402.61
  C 653.60 411.37 653.93 422.90 642.78 424.52
  Q 631.73 426.13 627.91 416.59
  Q 627.09 414.54 627.11 410.81
  Q 627.20 394.88 616.10 383.13
  C 599.98 366.08 573.20 362.25 552.45 372.62
  Q 533.50 382.09 527.61 403.17
  C 525.49 410.76 525.85 419.69 526.00 427.89
  Q 526.01 428.38 526.37 428.05
  Q 542.66 413.39 564.76 411.73
  C 570.18 411.32 577.47 411.68 581.80 414.98
  C 589.76 421.04 588.80 434.01 578.24 436.70
  Q 576.44 437.16 571.70 437.09
  C 546.26 436.71 526.38 456.80 526.05 482.01
  Q 525.54 521.74 526.11 593.43
  Q 526.11 593.86 526.45 593.60
  Q 537.36 585.00 552.00 582.47
  Q 590.48 575.81 615.19 603.23
  C 620.38 608.98 625.36 616.44 621.43 624.01
  C 617.98 630.66 609.11 632.25 603.01 628.37
  C 598.40 625.44 594.52 618.31 589.86 614.63
  C 570.93 599.67 535.40 606.82 527.27 631.19
  Q 526.18 634.48 526.04 638.73
  Q 525.74 648.45 526.08 657.94
  Q 526.10 658.47 526.55 658.20
  Q 547.50 645.45 570.46 650.55
  C 590.53 655.01 604.90 669.48 610.13 689.55
  C 612.44 698.39 610.25 707.77 599.88 709.45
  C 591.44 710.81 585.80 705.12 584.65 696.85
  C 582.15 678.76 564.57 671.26 548.28 676.14
  Q 534.22 680.35 527.78 694.49
  C 526.66 696.95 527.09 698.48 528.17 700.77
  C 534.38 713.97 543.57 726.87 555.37 735.23
  C 571.52 746.69 593.52 748.61 611.49 741.38
  C 638.50 730.50 660.67 697.12 651.32 667.43
  C 649.43 661.41 644.87 655.43 644.67 649.43
  C 644.34 639.47 654.38 633.65 663.26 637.39
  C 673.68 641.77 679.77 663.35 681.27 673.41
  Q 681.34 673.92 681.86 673.89
  Z"
/>
<ellipse fill="#fefffa" cx="0.00" cy="0.00" transform="translate(509.64,283.76) rotate(83.9)" rx="17.81" ry="17.53"/>
<path fill="#fefffa" d="
  M 370.13 420.35
  C 375.62 426.62 385.44 425.77 390.23 419.00
  C 393.66 414.16 391.41 408.95 392.69 403.63
  C 404.80 353.43 482.36 355.44 492.96 405.18
  C 494.33 411.64 494.10 419.56 493.96 426.67
  A 0.40 0.40 0.0 0 1 493.31 426.98
  C 480.48 417.35 468.05 411.57 451.51 411.63
  C 446.22 411.65 440.86 412.29 436.72 415.50
  C 429.76 420.87 431.22 433.60 440.09 436.52
  C 444.59 438.01 450.08 436.53 455.12 437.27
  C 479.25 440.83 494.00 460.65 494.01 484.50
  Q 494.03 538.88 493.91 593.25
  Q 493.91 594.08 493.77 594.66
  A 0.59 0.58 -63.6 0 1 492.83 594.98
  Q 475.99 581.16 453.99 581.20
  Q 422.35 581.25 402.62 605.40
  C 399.70 608.97 397.10 614.56 397.37 619.23
  C 397.76 626.18 403.29 631.24 410.16 631.13
  C 418.52 630.99 420.80 624.09 425.58 618.96
  Q 436.85 606.86 454.51 607.43
  Q 481.93 608.33 493.00 632.78
  Q 494.05 635.11 494.03 639.00
  Q 493.97 648.88 493.95 658.59
  A 0.43 0.43 0.0 0 1 493.28 658.94
  C 469.09 642.01 435.83 647.00 418.56 671.09
  C 413.03 678.81 405.21 695.58 411.75 704.25
  C 415.28 708.93 420.84 710.79 426.49 709.09
  Q 433.35 707.03 434.98 701.29
  C 435.82 698.35 435.82 693.90 437.12 690.62
  Q 442.59 676.81 458.26 674.97
  C 473.12 673.22 486.11 682.35 492.22 695.42
  C 492.57 696.16 492.65 697.39 492.35 698.14
  C 484.57 717.31 469.71 736.83 448.96 742.82
  Q 421.80 750.65 398.89 736.36
  Q 385.63 728.09 376.35 713.14
  Q 363.12 691.84 368.98 667.87
  C 370.01 663.66 372.50 659.05 374.25 654.49
  C 377.39 646.32 372.87 638.17 364.51 636.29
  Q 359.13 635.09 354.82 638.02
  Q 351.99 639.95 348.84 645.04
  Q 341.06 657.61 339.78 672.60
  Q 339.73 673.18 339.16 673.18
  C 315.46 673.39 292.83 657.18 282.20 637.10
  Q 281.93 636.59 282.32 636.16
  Q 287.62 630.19 295.02 628.15
  Q 296.79 627.67 299.66 628.06
  C 316.87 630.43 320.95 608.04 305.40 603.44
  Q 302.73 602.65 297.74 602.58
  C 292.11 602.51 287.63 602.47 282.63 605.20
  Q 277.40 608.07 272.34 611.27
  Q 271.87 611.57 271.75 611.01
  C 265.88 582.78 281.20 552.81 311.30 548.86
  Q 316.80 548.14 322.33 549.43
  Q 322.80 549.54 322.74 550.03
  Q 319.86 573.08 334.28 590.93
  Q 339.87 597.85 347.48 598.13
  C 357.44 598.50 365.37 586.13 358.07 577.92
  C 354.07 573.41 351.31 570.46 350.03 564.51
  Q 346.74 549.19 355.50 535.73
  C 357.25 533.04 358.21 528.35 357.30 525.03
  C 354.51 514.87 341.73 511.91 334.28 519.25
  C 332.97 520.54 331.60 522.71 330.22 524.42
  A 0.90 0.88 -64.8 0 1 329.36 524.74
  C 323.10 523.57 316.78 522.19 310.52 522.79
  Q 299.36 523.87 288.81 527.76
  A 0.82 0.82 0.0 0 1 287.75 527.26
  C 280.75 506.74 291.22 479.98 311.28 470.38
  Q 312.70 469.71 313.30 471.16
  C 319.21 485.44 329.31 496.65 346.23 490.15
  C 353.44 487.38 362.53 484.22 370.32 484.74
  C 376.48 485.15 382.14 486.39 387.14 481.43
  C 395.74 472.93 387.46 460.94 377.53 459.32
  C 364.32 457.17 354.60 460.32 341.78 465.27
  A 0.65 0.65 0.0 0 1 340.97 464.95
  C 331.94 445.82 339.84 424.90 354.42 411.16
  Q 359.94 405.96 366.59 403.25
  Q 367.09 403.05 367.08 403.58
  C 367.02 409.59 365.90 415.51 370.13 420.35
  Z
  M 409.17 496.19
  Q 399.97 519.68 412.98 541.44
  Q 415.93 546.37 421.13 548.68
  C 430.02 552.64 440.98 546.28 439.82 536.09
  C 439.43 532.69 436.64 529.11 434.79 525.99
  C 429.22 516.59 431.99 504.96 439.30 497.61
  C 442.70 494.19 447.52 493.49 450.08 489.19
  C 455.25 480.51 449.19 469.10 438.92 469.41
  C 426.14 469.79 413.42 485.34 409.17 496.19
  Z"
/>
<path fill="#fefffa" d="
  M 738.56 636.92
  C 727.36 659.37 706.54 672.00 681.86 673.89
  Q 681.34 673.92 681.27 673.41
  C 679.77 663.35 673.68 641.77 663.26 637.39
  C 654.38 633.65 644.34 639.47 644.67 649.43
  C 644.87 655.43 649.43 661.41 651.32 667.43
  C 660.67 697.12 638.50 730.50 611.49 741.38
  C 593.52 748.61 571.52 746.69 555.37 735.23
  C 543.57 726.87 534.38 713.97 528.17 700.77
  C 527.09 698.48 526.66 696.95 527.78 694.49
  Q 534.22 680.35 548.28 676.14
  C 564.57 671.26 582.15 678.76 584.65 696.85
  C 585.80 705.12 591.44 710.81 599.88 709.45
  C 610.25 707.77 612.44 698.39 610.13 689.55
  C 604.90 669.48 590.53 655.01 570.46 650.55
  Q 547.50 645.45 526.55 658.20
  Q 526.10 658.47 526.08 657.94
  Q 525.74 648.45 526.04 638.73
  Q 526.18 634.48 527.27 631.19
  C 535.40 606.82 570.93 599.67 589.86 614.63
  C 594.52 618.31 598.40 625.44 603.01 628.37
  C 609.11 632.25 617.98 630.66 621.43 624.01
  C 625.36 616.44 620.38 608.98 615.19 603.23
  Q 590.48 575.81 552.00 582.47
  Q 537.36 585.00 526.45 593.60
  Q 526.11 593.86 526.11 593.43
  Q 525.54 521.74 526.05 482.01
  C 526.38 456.80 546.26 436.71 571.70 437.09
  Q 576.44 437.16 578.24 436.70
  C 588.80 434.01 589.76 421.04 581.80 414.98
  C 577.47 411.68 570.18 411.32 564.76 411.73
  Q 542.66 413.39 526.37 428.05
  Q 526.01 428.38 526.00 427.89
  C 525.85 419.69 525.49 410.76 527.61 403.17
  Q 533.50 382.09 552.45 372.62
  C 573.20 362.25 599.98 366.08 616.10 383.13
  Q 627.20 394.88 627.11 410.81
  Q 627.09 414.54 627.91 416.59
  Q 631.73 426.13 642.78 424.52
  C 653.93 422.90 653.60 411.37 652.68 402.61
  A 0.69 0.69 0.0 0 1 653.70 401.93
  C 676.04 414.20 691.79 440.08 679.40 464.84
  A 1.03 1.03 0.0 0 1 678.04 465.31
  C 667.28 460.24 646.32 455.08 635.59 461.78
  C 625.35 468.17 628.22 484.46 640.96 485.37
  Q 641.22 485.39 648.99 484.57
  Q 656.60 483.77 664.03 486.42
  C 670.57 488.75 678.47 492.14 684.90 491.83
  C 697.62 491.22 704.71 480.34 708.95 469.47
  A 0.72 0.72 0.0 0 1 710.03 469.14
  C 722.00 477.55 731.62 488.08 734.86 503.24
  Q 737.52 515.72 732.62 527.41
  Q 732.41 527.91 731.91 527.73
  C 718.25 522.74 705.74 520.87 691.50 524.99
  A 1.16 1.15 67.1 0 1 690.18 524.45
  C 685.45 516.01 673.63 511.04 665.73 518.71
  C 658.53 525.69 664.17 533.56 667.81 540.81
  C 673.29 551.73 673.27 562.46 666.38 572.85
  C 664.65 575.47 660.84 578.22 659.86 582.07
  Q 657.66 590.77 664.26 595.46
  C 669.59 599.24 677.39 598.96 682.40 594.88
  C 694.52 585.04 699.85 565.49 698.11 550.04
  A 0.97 0.97 0.0 0 1 698.89 548.99
  Q 707.08 547.42 715.24 549.99
  Q 740.64 558.00 748.87 583.49
  Q 752.96 596.19 749.85 609.78
  A 0.98 0.98 0.0 0 1 748.27 610.32
  C 742.87 605.89 737.11 602.94 729.83 602.60
  C 721.70 602.22 711.36 601.74 706.50 609.49
  C 700.84 618.51 707.74 629.64 718.42 628.53
  C 726.94 627.65 733.04 629.09 738.49 636.14
  Q 738.77 636.51 738.56 636.92
  Z
  M 577.55 495.70
  C 588.02 502.89 590.41 516.91 583.80 527.28
  Q 579.92 533.38 579.92 533.38
  C 576.91 540.56 581.70 547.00 588.43 549.37
  C 595.50 551.86 601.29 548.08 605.59 542.26
  Q 616.10 528.03 613.97 510.27
  Q 611.76 491.81 598.37 479.15
  C 590.65 471.87 583.87 466.15 574.37 471.10
  Q 567.28 474.80 567.54 482.98
  C 567.77 490.11 572.71 492.38 577.55 495.70
  Z"
/>
<path fill="#182933" d="
  M 583.80 527.28
  C 590.41 516.91 588.02 502.89 577.55 495.70
  C 572.71 492.38 567.77 490.11 567.54 482.98
  Q 567.28 474.80 574.37 471.10
  C 583.87 466.15 590.65 471.87 598.37 479.15
  Q 611.76 491.81 613.97 510.27
  Q 616.10 528.03 605.59 542.26
  C 601.29 548.08 595.50 551.86 588.43 549.37
  C 581.70 547.00 576.91 540.56 579.92 533.38
  Q 579.92 533.38 583.80 527.28
  Z"
/>
<path fill="#182933" d="
  M 409.17 496.19
  C 413.42 485.34 426.14 469.79 438.92 469.41
  C 449.19 469.10 455.25 480.51 450.08 489.19
  C 447.52 493.49 442.70 494.19 439.30 497.61
  C 431.99 504.96 429.22 516.59 434.79 525.99
  C 436.64 529.11 439.43 532.69 439.82 536.09
  C 440.98 546.28 430.02 552.64 421.13 548.68
  Q 415.93 546.37 412.98 541.44
  Q 399.97 519.68 409.17 496.19
  Z"
/>
</svg>
