<?xml version="1.0" encoding="UTF-8" standalone="no"?>
<!DOCTYPE svg PUBLIC "-//W3C//DTD SVG 1.1//EN" "http://www.w3.org/Graphics/SVG/1.1/DTD/svg11.dtd">
<svg xmlns="http://www.w3.org/2000/svg" version="1.1" viewBox="0.00 0.00 1448.00 1448.00">
<g stroke-width="2.00" fill="none" stroke-linecap="butt">
<path stroke="#0c7ce1" vector-effect="non-scaling-stroke" d="
  M 638.06 226.54
  C 637.11 228.82 638.24 230.52 637.65 232.47
  Q 636.99 234.65 635.12 236.12
  C 610.98 255.06 585.60 272.77 560.45 290.62
  Q 554.19 295.06 549.74 296.62
  Q 534.53 301.97 519.00 294.81
  Q 518.04 294.37 515.58 294.54"
/>
<path stroke="#138fe4" vector-effect="non-scaling-stroke" d="
  M 595.94 392.66
  Q 597.20 389.22 597.24 387.68
  Q 597.71 369.59 597.29 351.50
  Q 597.22 348.23 596.76 346.53
  A 0.37 0.37 0.0 0 0 596.04 346.60
  L 595.86 349.79"
/>
<path stroke="#8f6a44" vector-effect="non-scaling-stroke" d="
  M 1134.90 1025.57
  L 1131.41 1027.21
  Q 1130.92 1027.44 1130.48 1027.12
  Q 1105.49 1008.66 1076.23 1016.70
  Q 1070.05 1018.40 1064.13 1023.96"
/>
<path stroke="#8f6a44" vector-effect="non-scaling-stroke" d="
  M 1128.97 1050.09
  Q 1123.05 1054.95 1116.99 1055.34
  Q 1104.25 1056.17 1086.43 1052.78
  Q 1074.72 1050.56 1066.29 1044.91"
/>
</g>
<path fill="#1059d9" d="
  M 638.06 226.54
  C 637.11 228.82 638.24 230.52 637.65 232.47
  Q 636.99 234.65 635.12 236.12
  C 610.98 255.06 585.60 272.77 560.45 290.62
  Q 554.19 295.06 549.74 296.62
  Q 534.53 301.97 519.00 294.81
  Q 518.04 294.37 515.58 294.54
  Q 477.77 267.99 439.47 240.80
  C 432.57 235.90 425.84 227.65 435.13 220.36
  Q 472.82 190.75 510.53 161.14
  Q 518.89 154.58 523.20 153.15
  C 534.65 149.34 543.97 154.52 553.42 161.99
  Q 590.59 191.40 604.62 201.65
  Q 630.36 220.47 638.06 226.54
  Z"
/>
<path fill="#fbae5e" d="
  M 874.95 296.98
  C 864.82 304.17 858.54 305.91 847.96 298.26
  Q 802.05 265.10 756.25 231.78
  C 754.19 230.28 749.35 226.19 752.75 223.49
  Q 788.35 195.22 823.88 166.88
  Q 830.06 161.94 838.29 157.76
  C 853.61 149.98 866.86 156.62 878.89 166.36
  Q 912.02 193.18 946.35 218.43
  Q 953.13 223.41 957.77 229.64
  A 2.08 2.07 -38.6 0 1 957.45 232.45
  Q 917.68 266.60 874.95 296.98
  Z"
/>
<path fill="#f96b5f" d="
  M 1093.37 163.12
  C 1102.42 156.24 1113.72 152.21 1124.68 156.31
  Q 1129.13 157.98 1137.33 164.62
  Q 1172.77 193.32 1208.04 222.23
  C 1209.57 223.48 1214.47 228.28 1212.64 231.13
  C 1210.06 235.14 1207.28 237.81 1203.14 240.94
  Q 1167.21 268.06 1132.20 296.35
  Q 1124.11 302.88 1119.95 304.34
  C 1110.38 307.68 1103.68 304.26 1095.07 298.41
  Q 1049.08 267.16 1011.51 234.00
  C 1009.92 232.60 1010.30 230.18 1011.69 228.57
  Q 1018.98 220.12 1027.12 213.87
  Q 1077.92 174.87 1093.37 163.12
  Z"
/>
<path fill="#079fe8" d="
  M 638.06 226.54
  Q 639.07 228.86 640.47 230.00
  A 1.48 1.48 0.0 0 1 640.52 232.25
  C 617.00 253.35 590.19 270.71 564.58 289.11
  Q 554.46 296.39 549.28 298.26
  Q 533.23 304.05 515.58 294.54
  Q 518.04 294.37 519.00 294.81
  Q 534.53 301.97 549.74 296.62
  Q 554.19 295.06 560.45 290.62
  C 585.60 272.77 610.98 255.06 635.12 236.12
  Q 636.99 234.65 637.65 232.47
  C 638.24 230.52 637.11 228.82 638.06 226.54
  Z"
/>
<path fill="#1e7fe0" d="
  M 595.94 392.66
  Q 597.20 389.22 597.24 387.68
  Q 597.71 369.59 597.29 351.50
  Q 597.22 348.23 596.76 346.53
  A 0.37 0.37 0.0 0 0 596.04 346.60
  L 595.86 349.79
  C 596.01 344.32 595.56 337.90 596.81 333.18
  Q 598.56 326.58 603.60 322.36
  Q 632.12 298.46 668.92 273.19
  C 684.65 262.39 700.99 249.44 719.45 254.88
  Q 725.05 256.53 736.99 264.29
  Q 779.10 291.66 811.77 318.20
  Q 815.91 321.56 817.93 326.94
  Q 819.28 330.52 819.35 337.21
  Q 819.71 373.16 819.22 409.31
  A 1.36 1.35 10.2 0 1 817.41 410.56
  Q 814.32 409.46 811.31 408.06
  Q 767.11 387.62 723.86 365.23
  C 711.32 358.74 701.47 361.10 688.84 366.98
  C 658.19 381.25 628.43 397.31 597.33 410.61
  Q 596.79 410.85 596.71 410.26
  Q 595.48 400.84 595.94 392.66
  Z"
/>
<path fill="#633bae" d="
  M 1063.66 519.59
  C 1001.66 491.82 939.69 464.04 877.49 436.71
  Q 874.03 435.19 872.41 431.70
  Q 871.45 429.62 871.18 425.02
  C 870.55 414.10 869.80 407.12 870.76 399.39
  Q 871.28 395.23 871.22 392.07
  Q 870.88 375.66 871.26 363.00
  C 871.38 358.76 873.51 356.29 876.95 353.47
  Q 918.45 319.48 958.60 292.59
  C 975.74 281.12 993.81 293.62 1008.10 303.22
  Q 1043.13 326.79 1076.29 352.95
  C 1081.85 357.33 1083.04 362.18 1083.04 369.59
  Q 1083.06 447.37 1083.01 524.36
  A 1.27 1.27 0.0 0 1 1081.44 525.60
  Q 1072.17 523.40 1063.66 519.59
  Z"
/>
<path fill="#fe347d" d="
  M 1215.52 539.24
  C 1207.02 548.72 1199.12 558.66 1192.14 569.30
  C 1189.20 573.79 1187.42 572.87 1183.29 570.96
  Q 1153.51 557.17 1124.38 543.61
  A 2.37 2.36 -76.6 0 1 1123.01 541.37
  Q 1123.45 530.56 1123.15 519.84
  C 1122.74 505.57 1116.93 492.53 1117.45 478.26
  Q 1119.44 423.13 1118.12 375.25
  C 1117.80 363.74 1122.84 360.30 1132.24 353.10
  Q 1158.24 333.18 1184.06 313.03
  C 1190.79 307.77 1197.06 303.55 1203.95 299.37
  A 1.90 1.88 -42.8 0 1 1206.03 299.44
  C 1217.14 307.25 1229.71 320.07 1233.02 333.76
  Q 1234.04 338.00 1233.98 348.32
  Q 1233.37 441.59 1234.10 494.38
  Q 1234.34 512.34 1225.94 526.34
  Q 1223.59 530.23 1215.52 539.24
  Z"
/>
<path fill="#079fe8" d="
  M 256.17 303.89
  C 323.95 303.30 391.61 304.34 459.37 305.86
  C 467.57 306.04 472.43 309.31 479.22 314.03
  Q 507.72 333.84 534.33 356.16
  Q 538.79 359.90 539.12 365.75
  Q 541.11 400.90 538.62 436.01
  C 538.51 437.57 536.47 439.31 534.88 440.04
  Q 407.35 498.39 279.79 556.69
  C 274.52 559.10 268.81 560.84 263.32 562.85
  A 1.07 1.04 55.4 0 1 262.25 562.64
  Q 237.90 540.73 220.27 513.22
  C 214.42 504.09 216.48 491.08 216.49 480.91
  Q 216.52 403.33 216.64 325.75
  Q 216.65 324.14 217.78 323.28
  Q 230.51 313.58 242.97 307.14
  C 247.01 305.06 251.28 303.93 256.17 303.89
  Z"
/>
<path fill="#079fe8" d="
  M 595.94 392.66
  Q 595.09 370.67 595.86 349.79
  L 596.04 346.60
  A 0.37 0.37 0.0 0 1 596.76 346.53
  Q 597.22 348.23 597.29 351.50
  Q 597.71 369.59 597.24 387.68
  Q 597.20 389.22 595.94 392.66
  Z"
/>
<path fill="#222629" d="
  M 1134.90 1025.57
  L 1131.41 1027.21
  Q 1130.92 1027.44 1130.48 1027.12
  Q 1105.49 1008.66 1076.23 1016.70
  Q 1070.05 1018.40 1064.13 1023.96
  L 1057.44 1024.13
  Q 1056.96 1024.14 1056.90 1023.66
  Q 1056.24 1017.71 1056.32 1015.25
  Q 1057.16 989.87 1056.23 964.50
  Q 1056.17 962.81 1056.95 961.31
  Q 1063.29 949.24 1075.74 944.25
  C 1079.88 942.58 1082.68 940.41 1082.60 935.83
  C 1082.03 901.19 1083.36 866.57 1083.13 831.91
  C 1083.09 826.91 1084.67 818.49 1082.56 813.62
  Q 1081.87 812.03 1079.69 810.03
  Q 1072.40 803.37 1057.56 790.95
  Q 1036.74 773.52 1014.95 762.85
  C 925.96 719.27 836.43 676.83 747.47 633.16
  C 745.31 632.10 741.59 629.69 740.39 627.56
  C 733.09 614.70 722.67 606.01 708.05 603.32
  C 703.66 602.51 698.54 602.74 693.65 602.76
  Q 690.46 602.78 687.94 603.44
  C 664.88 609.55 645.83 633.38 657.39 657.69
  C 665.09 673.89 683.19 685.47 701.24 684.66
  C 717.35 683.94 732.36 676.66 739.95 661.95
  A 1.32 1.32 0.0 0 1 741.75 661.40
  C 760.07 671.31 778.69 680.78 797.56 689.71
  Q 898.16 737.31 998.48 785.49
  Q 999.76 786.10 1000.48 786.77
  A 1.04 1.03 -34.5 0 1 1000.16 788.48
  Q 983.74 795.18 968.42 802.52
  Q 899.69 835.43 830.99 868.38
  Q 821.92 872.73 813.05 877.20
  Q 763.17 902.32 713.38 927.61
  C 709.03 929.82 704.10 931.43 699.49 933.22
  C 697.55 933.97 696.12 933.11 693.83 932.00
  Q 566.59 870.70 511.96 844.60
  Q 437.96 809.24 359.10 779.03
  Q 347.62 774.63 340.46 771.76
  Q 219.60 723.15 103.30 665.23
  A 1.63 1.63 0.0 0 1 103.24 662.35
  C 106.43 660.59 109.69 658.50 112.97 657.01
  Q 201.79 616.47 291.28 577.42
  Q 300.77 573.28 309.54 569.28
  C 438.59 510.39 567.32 450.85 694.96 388.95
  C 701.27 385.89 706.25 384.98 712.34 387.87
  Q 915.42 484.01 1116.68 568.14
  C 1129.72 573.59 1141.60 581.13 1154.55 586.91
  Q 1234.00 622.41 1313.75 657.87
  A 1.52 1.52 0.0 0 1 1314.11 660.43
  Q 1313.41 661.01 1312.28 661.59
  Q 1201.48 717.84 1090.69 774.10
  Q 1087.80 775.57 1085.89 777.65
  C 1083.72 780.01 1079.57 784.13 1084.14 786.12
  C 1093.01 789.97 1101.84 796.30 1105.16 805.62
  Q 1106.59 809.64 1106.64 818.05
  Q 1106.95 873.35 1107.37 928.64
  C 1107.39 931.63 1106.52 936.07 1108.18 939.53
  Q 1109.27 941.80 1111.44 940.96
  Q 1111.97 940.75 1112.25 941.25
  Q 1112.31 941.37 1112.37 941.50
  A 0.43 0.41 -1.4 0 0 1112.59 941.70
  C 1122.77 945.40 1131.42 953.05 1133.50 963.99
  Q 1134.92 971.48 1134.90 980.50
  Q 1134.85 1002.99 1134.90 1025.57
  Z"
/>
<path fill="#fd8551" d="
  M 1160.77 968.99
  C 1160.11 951.56 1149.53 934.24 1138.99 920.51
  C 1136.18 916.86 1134.89 912.11 1135.00 908.00
  Q 1135.91 873.56 1136.27 839.12
  Q 1136.48 819.79 1136.46 819.12
  Q 1135.80 801.38 1129.32 784.79
  A 1.19 1.18 -25.0 0 1 1129.86 783.32
  Q 1155.57 769.21 1182.97 758.28
  C 1189.28 755.77 1201.23 776.39 1203.63 780.84
  Q 1215.03 801.98 1225.89 823.41
  C 1231.13 833.74 1233.76 843.51 1233.74 855.53
  Q 1233.58 994.59 1233.97 1039.25
  Q 1234.04 1047.36 1232.90 1054.02
  C 1230.80 1066.27 1223.26 1079.02 1215.66 1088.92
  Q 1197.99 1111.93 1175.56 1130.33
  C 1174.31 1131.35 1173.21 1133.32 1171.09 1132.55
  Q 1170.57 1132.37 1170.39 1131.84
  C 1164.70 1114.54 1162.76 1098.69 1160.90 1079.55
  C 1158.05 1050.39 1158.85 1028.78 1160.42 995.99
  C 1160.85 986.87 1161.05 976.35 1160.77 968.99
  Z"
/>
<path fill="#17d7be" d="
  M 221.49 814.21
  Q 233.29 788.33 250.85 764.07
  C 251.96 762.55 253.35 762.38 255.19 762.94
  Q 269.14 767.14 282.51 772.92
  C 305.86 783.01 328.64 792.45 345.77 800.70
  C 347.85 801.70 347.38 804.09 347.00 806.48
  Q 343.72 827.23 343.60 848.25
  Q 343.41 882.93 343.78 906.00
  C 343.95 916.10 344.68 928.21 347.91 937.41
  C 359.46 970.29 397.98 987.42 428.80 996.05
  Q 479.26 1010.18 528.96 1026.78
  C 531.45 1027.61 532.53 1028.94 532.51 1031.52
  C 532.41 1042.98 528.25 1050.07 521.60 1060.90
  C 479.01 1130.21 395.63 1154.98 318.75 1155.76
  Q 271.12 1156.24 223.49 1156.19
  C 214.77 1156.18 214.27 1153.81 214.27 1146.04
  Q 214.20 1003.40 214.30 860.75
  C 214.31 841.68 214.42 829.71 221.49 814.21
  Z"
/>
<path fill="#222629" d="
  M 1011.67 963.86
  Q 1011.59 964.00 1011.53 964.16
  Q 1011.41 964.46 1011.12 964.59
  Q 1003.92 967.74 996.79 971.03
  Q 996.00 971.39 995.15 971.30
  Q 994.65 971.25 994.18 971.43
  C 984.08 975.14 974.63 978.50 963.67 981.01
  C 868.33 1002.77 779.85 1050.83 707.12 1115.68
  A 1.45 1.45 0.0 0 1 705.20 1115.68
  Q 671.20 1085.87 633.74 1060.00
  Q 572.68 1017.84 502.11 994.80
  Q 472.40 985.10 425.75 971.03
  C 407.73 965.60 389.19 957.20 376.50 942.34
  Q 376.18 941.97 376.16 941.49
  L 370.42 808.78
  A 0.55 0.54 -81.6 0 1 371.14 808.24
  C 382.01 811.94 392.62 815.72 403.51 820.21
  C 500.53 860.22 591.62 904.84 688.98 952.77
  C 696.96 956.69 703.17 955.60 711.47 951.63
  Q 730.97 942.32 764.74 925.18
  Q 864.83 874.40 981.74 820.06
  C 995.63 813.61 1008.84 807.89 1021.74 803.55
  C 1026.81 801.84 1033.30 804.43 1037.80 807.49
  Q 1041.11 809.74 1042.99 813.20
  Q 1045.90 818.59 1045.92 823.50
  C 1045.99 849.81 1045.28 876.35 1046.49 902.62
  Q 1046.80 909.38 1045.98 918.49
  Q 1044.98 929.72 1040.00 937.22
  Q 1029.12 953.59 1012.11 963.44
  Q 1011.80 963.61 1011.67 963.86
  Z"
/>
<path fill="#fe347d" d="
  M 935.82 1016.98
  Q 936.87 1010.89 942.50 1009.57
  Q 986.03 999.40 1027.57 983.29
  A 0.78 0.78 0.0 0 1 1028.63 983.94
  C 1029.22 990.56 1030.27 997.08 1029.31 1003.74
  Q 1027.80 1014.22 1030.09 1024.51
  Q 1030.96 1028.39 1033.52 1033.06
  C 1037.96 1041.14 1042.63 1046.61 1039.54 1056.60
  Q 1029.86 1087.93 1017.18 1126.24
  C 1016.39 1128.64 1014.75 1130.29 1012.30 1128.19
  Q 975.79 1096.79 943.64 1065.61
  Q 937.06 1059.23 935.70 1049.86
  Q 935.63 1049.36 935.31 1048.96
  Q 934.81 1048.33 934.77 1047.50
  C 934.52 1042.08 933.32 1036.70 933.78 1031.48
  Q 934.28 1025.82 935.01 1020.24
  Q 935.09 1019.67 934.84 1019.15
  Q 934.40 1018.23 935.40 1017.60
  Q 935.75 1017.38 935.82 1016.98
  Z"
/>
<path fill="#fbae5e" d="
  M 1134.90 1025.57
  Q 1134.21 1028.08 1131.43 1030.28
  Q 1131.02 1030.61 1131.08 1031.13
  C 1131.86 1038.20 1132.26 1043.42 1128.97 1050.09
  Q 1123.05 1054.95 1116.99 1055.34
  Q 1104.25 1056.17 1086.43 1052.78
  Q 1074.72 1050.56 1066.29 1044.91
  Q 1062.81 1034.64 1064.13 1023.96
  Q 1070.05 1018.40 1076.23 1016.70
  Q 1105.49 1008.66 1130.48 1027.12
  Q 1130.92 1027.44 1131.41 1027.21
  L 1134.90 1025.57
  Z"
/>
<path fill="#17d7be" d="
  M 703.85 1152.24
  C 705.56 1154.30 707.69 1154.36 709.22 1152.21
  C 715.67 1143.13 721.55 1134.98 729.54 1127.42
  C 763.64 1095.14 804.48 1068.34 847.56 1047.68
  Q 853.42 1044.86 859.42 1043.28
  A 1.84 1.83 82.5 0 1 861.72 1045.05
  Q 861.75 1073.50 861.76 1101.26
  Q 861.76 1107.72 856.00 1112.02
  Q 820.62 1138.40 785.13 1164.64
  C 770.07 1175.78 759.69 1183.80 746.66 1189.93
  C 730.10 1197.71 710.08 1200.55 692.92 1192.99
  Q 682.21 1188.27 671.93 1180.59
  Q 612.64 1136.33 567.83 1101.19
  C 564.34 1098.46 561.12 1094.50 560.75 1089.75
  Q 559.14 1068.73 560.71 1048.45
  A 1.09 1.09 0.0 0 1 562.16 1047.51
  C 576.97 1052.74 588.59 1059.24 603.18 1068.00
  C 640.90 1090.67 675.71 1118.26 703.85 1152.24
  Z"
/>
<path fill="#222629" d="
  M 1066.29 1044.91
  Q 1074.72 1050.56 1086.43 1052.78
  Q 1104.25 1056.17 1116.99 1055.34
  Q 1123.05 1054.95 1128.97 1050.09
  C 1133.00 1049.96 1132.28 1052.37 1132.90 1055.00
  Q 1133.35 1056.88 1133.76 1058.74
  Q 1133.84 1059.10 1134.34 1059.38
  A 1.04 1.04 0.0 0 1 1134.85 1060.18
  Q 1135.12 1062.59 1135.32 1065.00
  Q 1135.39 1065.77 1134.93 1068.41
  C 1134.60 1070.29 1135.41 1071.55 1135.43 1073.23
  Q 1135.48 1078.11 1136.01 1083.00
  Q 1142.06 1138.83 1172.18 1186.08
  Q 1173.23 1187.71 1175.03 1189.49
  C 1178.44 1192.87 1181.96 1193.38 1179.40 1199.45
  Q 1174.89 1210.15 1164.85 1215.22
  A 2.97 2.96 -41.7 0 1 1161.91 1215.06
  Q 1157.88 1212.43 1155.26 1207.76
  Q 1138.93 1178.65 1123.72 1148.95
  Q 1123.50 1148.52 1123.13 1148.83
  Q 1121.30 1150.37 1121.93 1152.49
  Q 1129.24 1177.27 1141.61 1198.89
  Q 1149.31 1212.35 1161.16 1223.22
  C 1162.55 1224.49 1163.53 1226.19 1161.31 1227.31
  Q 1148.29 1233.88 1137.81 1236.18
  Q 1133.65 1237.09 1126.95 1236.73
  Q 1124.79 1236.62 1123.09 1235.39
  Q 1116.97 1230.96 1112.72 1224.74
  C 1109.75 1220.38 1108.74 1214.63 1104.90 1210.22
  A 1.71 1.71 0.0 0 0 1101.91 1211.34
  Q 1101.89 1216.14 1101.90 1221.25
  Q 1101.90 1221.76 1102.23 1222.13
  Q 1102.49 1222.41 1102.49 1222.80
  L 1102.49 1234.06
  A 4.22 4.22 0.0 0 1 1098.44 1238.28
  L 1079.64 1239.02
  Q 1078.33 1239.08 1078.33 1237.77
  L 1078.34 1208.48
  A 1.24 1.24 0.0 0 0 1075.96 1208.00
  C 1073.26 1214.41 1070.84 1220.78 1066.63 1226.66
  Q 1062.82 1231.99 1059.75 1237.77
  Q 1059.50 1238.24 1059.00 1238.41
  Q 1056.54 1239.19 1052.75 1238.50
  Q 1038.44 1235.89 1027.94 1230.05
  Q 1027.43 1229.77 1027.71 1229.26
  C 1036.72 1212.85 1044.76 1197.71 1050.17 1180.40
  Q 1054.41 1166.80 1058.23 1153.09
  C 1058.70 1151.43 1059.84 1149.61 1058.07 1148.25
  Q 1057.35 1147.69 1057.03 1148.55
  C 1048.90 1170.42 1034.94 1188.36 1020.45 1204.90
  Q 1020.10 1205.31 1020.07 1205.84
  Q 1020.03 1206.50 1019.33 1206.79
  Q 1018.83 1207.00 1018.49 1207.42
  Q 1014.38 1212.66 1011.82 1214.36
  C 1006.33 1218.02 997.34 1212.40 993.08 1208.75
  Q 990.63 1206.66 990.31 1204.67
  C 989.85 1201.79 992.16 1200.57 993.99 1198.85
  Q 1016.30 1177.97 1031.19 1151.22
  Q 1044.40 1127.48 1051.60 1101.26
  Q 1055.01 1088.84 1057.32 1076.16
  Q 1057.67 1074.25 1058.94 1072.08
  C 1061.36 1067.93 1061.60 1063.18 1062.49 1059.56
  Q 1064.30 1052.12 1066.29 1044.91
  Z"
/>
</svg>
